# xmcd
#
# Track frame offsets: 
#        182
#        13900
#        32500
#        51700
#        67242
#        82095
#        98230
#        114587
#        131757
#        146672
#        163190
#        175532
#
# Disc length: 2584 seconds
#
# Revision: 2
# Processed by: cddbd v1.5.2PL0 Copyright (c) Steve Scherf et al.
# Submitted via: ExactAudioCopy v0.95b2
#
DISCID=b10a160c
DTITLE=Cheiro De Amor - Adrenalina
DYEAR=1993
DGENRE=Brasil
TTITLE0=Eu So Quero Voce
TTITLE1=Pureza da Paixao
TTITLE2=Laco De Emocao
TTITLE3=Entao Vem
TTITLE4=Na Cara Do Sol De Verao
TTITLE5=Cancao De Amor (A Menina)
TTITLE6=Adrenalina
TTITLE7=Vai E Vem Das Ondas
TTITLE8=Cinema E Ciranda
TTITLE9=Me Ama
TTITLE10=Vulcao Inflamado
TTITLE11=Lero-Lero
EXTD=
EXTT0=
EXTT1=
EXTT2=
EXTT3=
EXTT4=
EXTT5=
EXTT6=
EXTT7=
EXTT8=
EXTT9=
EXTT10=
EXTT11=
PLAYORDER=
